<svg height="512" viewBox="0 0 64 64" width="512" xmlns="http://www.w3.org/2000/svg" xmlns:xlink="http://www.w3.org/1999/xlink"><linearGradient id="linear-gradient" gradientUnits="userSpaceOnUse" x2="65.49" y1="24.5" y2="24.5"><stop offset="0" stop-color="#fdcdb6"/><stop offset=".186" stop-color="#fdb5b7"/><stop offset=".52" stop-color="#fe81b9"/><stop offset="1" stop-color="#fdc1f4"/></linearGradient><linearGradient id="linear-gradient-2" x2="65.49" xlink:href="#linear-gradient" y1="15.519" y2="15.519"/><linearGradient id="linear-gradient-3" x2="65.49" xlink:href="#linear-gradient" y1="26" y2="26"/><linearGradient id="linear-gradient-4" x2="65.49" xlink:href="#linear-gradient" y1="42.5" y2="42.5"/><linearGradient id="linear-gradient-5" x2="65.49" xlink:href="#linear-gradient" y1="27.5" y2="27.5"/><linearGradient id="linear-gradient-6" x2="65.49" xlink:href="#linear-gradient" y1="18.022" y2="18.022"/><linearGradient id="linear-gradient-7" x2="65.49" xlink:href="#linear-gradient" y1="53.022" y2="53.022"/><linearGradient id="linear-gradient-8" x2="65.49" xlink:href="#linear-gradient" y1="16" y2="16"/><linearGradient id="linear-gradient-9" x2="65.49" xlink:href="#linear-gradient" y1="41" y2="41"/><linearGradient id="linear-gradient-10" x2="65.49" xlink:href="#linear-gradient" y1="32" y2="32"/><linearGradient id="linear-gradient-11" x2="65.49" xlink:href="#linear-gradient" y1="48" y2="48"/><linearGradient id="linear-gradient-12" x2="65.49" xlink:href="#linear-gradient" y1="23" y2="23"/><g id="Gradient_outline" data-name="Gradient outline"><path d="m27.216 13.969c.3-.07.653-.16 1.033-.257a19 19 0 0 1 3.751-.712c9.121 0 16 7.309 16 17a19.992 19.992 0 0 1 -5.695 13.282 1 1 0 0 0 .695 1.718h.079c10.256-.813 18.921-10.429 18.921-21a20.023 20.023 0 0 0 -20-20c-5.97 0-11.73 3.057-15.806 8.388a1 1 0 0 0 1.022 1.581zm14.784-7.969a18.021 18.021 0 0 1 18 18 19.623 19.623 0 0 1 -14.413 18.567 21.9 21.9 0 0 0 4.413-12.567c0-10.832-7.738-19-18-19a11.243 11.243 0 0 0 -2.166.276 17.445 17.445 0 0 1 12.166-5.276z" fill="url(#linear-gradient)"/><path d="m56 23h2c0-.118-.134-11.8-11.737-14.965l-.526 1.93c10.107 2.756 10.263 12.618 10.263 13.035z" fill="url(#linear-gradient-2)"/><path d="m56 25h2v2h-2z" fill="url(#linear-gradient-3)"/><path d="m3 49h26a1 1 0 0 0 1-1v-2c0-1.859-.776-4.969-5.931-5-.064-.007-.191-.015-.366-.019-1.271-3.261-3.919-4.981-7.703-4.981s-6.69 1.9-7.753 5h-.247c-3.589 0-6 2.009-6 5v2a1 1 0 0 0 1 1zm1-3c0-2.212 2.066-3 4-3h1a1 1 0 0 0 .975-.775c.61-2.645 2.863-4.225 6.025-4.225 2.822 0 4.646 1.049 5.661 3.279a4.08 4.08 0 0 0 -1.468.816 3.766 3.766 0 0 0 -1.193 2.905h2a1.792 1.792 0 0 1 .523-1.412 2.854 2.854 0 0 1 1.612-.588h.865c3.524 0 4 1.517 4 3v1h-24z" fill="url(#linear-gradient-4)"/><path d="m11 31v2a1 1 0 0 0 1 1h26a1 1 0 0 0 1-1v-2c0-1.867-.779-5-6-5h-.289c-1.269-3.275-3.92-5-7.711-5s-6.69 1.895-7.753 5h-.247c-3.589 0-6 2.009-6 5zm2 0c0-2.212 2.066-3 4-3 .135 0 3 .046 3 2h2a3.726 3.726 0 0 0 -2.758-3.6c.858-2.143 2.943-3.4 5.758-3.4 2.875 0 4.708 1.1 5.712 3.413a3.715 3.715 0 0 0 -2.712 3.587h2c0-1.955 2.869-2 3-2 3.523 0 4 1.517 4 3v1h-24z" fill="url(#linear-gradient-5)"/><path d="m4.893 20.307-.863 3.45a1 1 0 0 0 1.417 1.143l3.553-1.782 3.553 1.782a1 1 0 0 0 1.417-1.138l-.863-3.45 2.6-2.6a1 1 0 0 0 -.465-1.677l-3.554-.888-1.788-3.594a1.042 1.042 0 0 0 -1.79 0l-1.798 3.589-3.554.888a1 1 0 0 0 -.465 1.677zm2.349-3.337a1 1 0 0 0 .653-.523l1.105-2.211 1.105 2.211a1 1 0 0 0 .653.523l2.286.572-1.751 1.751a1 1 0 0 0 -.263.95l.473 1.89-2.056-1.028a1 1 0 0 0 -.894 0l-2.053 1.028.473-1.89a1 1 0 0 0 -.263-.95l-1.754-1.751z" fill="url(#linear-gradient-6)"/><path d="m45.964 51.733a1 1 0 0 0 -.722-.7l-3.554-.888-1.788-3.592a1.042 1.042 0 0 0 -1.79 0l-1.793 3.589-3.554.888a1 1 0 0 0 -.465 1.677l2.6 2.6-.863 3.45a1 1 0 0 0 1.412 1.143l3.553-1.782 3.553 1.782a1 1 0 0 0 1.417-1.138l-.863-3.45 2.6-2.6a1 1 0 0 0 .257-.979zm-4.671 2.56a1 1 0 0 0 -.263.95l.473 1.89-2.056-1.028a1 1 0 0 0 -.894 0l-2.053 1.028.473-1.89a1 1 0 0 0 -.263-.95l-1.751-1.751 2.286-.572a1 1 0 0 0 .653-.523l1.102-2.211 1.1 2.211a1 1 0 0 0 .653.523l2.286.572z" fill="url(#linear-gradient-7)"/><path d="m20 15h2v2h-2z" fill="url(#linear-gradient-8)"/><path d="m32 40h2v2h-2z" fill="url(#linear-gradient-9)"/><path d="m4 31h2v2h-2z" fill="url(#linear-gradient-10)"/><path d="m50 47h2v2h-2z" fill="url(#linear-gradient-11)"/><path d="m38 22h2v2h-2z" fill="url(#linear-gradient-12)"/></g></svg>